<?xml version="1.0" encoding="UTF-8"?>
<?xml-stylesheet href="https://cdnjs.cloudflare.com/ajax/libs/font-awesome/6.6.0/css/all.min.css" type="text/css"?>
<svg aria-roledescription="er" role="graphics-document document" viewBox="0 0 1081 1006.4000244140625" style="max-width: 100%;" xmlns="http://www.w3.org/2000/svg" width="100%" id="graph-div" height="100%" xmlns:xlink="http://www.w3.org/1999/xlink"><style>#graph-div{font-family:"trebuchet ms",verdana,arial,sans-serif;font-size:16px;fill:#ccc;}#graph-div .error-icon{fill:#a44141;}#graph-div .error-text{fill:#ddd;stroke:#ddd;}#graph-div .edge-thickness-normal{stroke-width:1px;}#graph-div .edge-thickness-thick{stroke-width:3.5px;}#graph-div .edge-pattern-solid{stroke-dasharray:0;}#graph-div .edge-thickness-invisible{stroke-width:0;fill:none;}#graph-div .edge-pattern-dashed{stroke-dasharray:3;}#graph-div .edge-pattern-dotted{stroke-dasharray:2;}#graph-div .marker{fill:lightgrey;stroke:lightgrey;}#graph-div .marker.cross{stroke:lightgrey;}#graph-div svg{font-family:"trebuchet ms",verdana,arial,sans-serif;font-size:16px;}#graph-div p{margin:0;}#graph-div .entityBox{fill:#1f2020;stroke:#ccc;}#graph-div .attributeBoxOdd{fill:hsl(0, 0%, 32%);stroke:#ccc;}#graph-div .attributeBoxEven{fill:hsl(0, 0%, 22%);stroke:#ccc;}#graph-div .relationshipLabelBox{fill:hsl(20, 1.5873015873%, 12.3529411765%);opacity:0.7;background-color:hsl(20, 1.5873015873%, 12.3529411765%);}#graph-div .relationshipLabelBox rect{opacity:0.5;}#graph-div .relationshipLine{stroke:lightgrey;}#graph-div .entityTitleText{text-anchor:middle;font-size:18px;fill:#ccc;}#graph-div #MD_PARENT_START{fill:#f5f5f5!important;stroke:lightgrey!important;stroke-width:1;}#graph-div #MD_PARENT_END{fill:#f5f5f5!important;stroke:lightgrey!important;stroke-width:1;}#graph-div :root{--mermaid-font-family:"trebuchet ms",verdana,arial,sans-serif;}</style><g></g><defs><marker orient="auto" markerHeight="240" markerWidth="190" refY="7" refX="0" id="MD_PARENT_START"><path d="M 18,7 L9,13 L1,7 L9,1 Z"></path></marker></defs><defs><marker orient="auto" markerHeight="28" markerWidth="20" refY="7" refX="19" id="MD_PARENT_END"><path d="M 18,7 L9,13 L1,7 L9,1 Z"></path></marker></defs><defs><marker orient="auto" markerHeight="18" markerWidth="18" refY="9" refX="0" id="ONLY_ONE_START"><path d="M9,0 L9,18 M15,0 L15,18" fill="none" stroke="gray"></path></marker></defs><defs><marker orient="auto" markerHeight="18" markerWidth="18" refY="9" refX="18" id="ONLY_ONE_END"><path d="M3,0 L3,18 M9,0 L9,18" fill="none" stroke="gray"></path></marker></defs><defs><marker orient="auto" markerHeight="18" markerWidth="30" refY="9" refX="0" id="ZERO_OR_ONE_START"><circle r="6" cy="9" cx="21" fill="white" stroke="gray"></circle><path d="M9,0 L9,18" fill="none" stroke="gray"></path></marker></defs><defs><marker orient="auto" markerHeight="18" markerWidth="30" refY="9" refX="30" id="ZERO_OR_ONE_END"><circle r="6" cy="9" cx="9" fill="white" stroke="gray"></circle><path d="M21,0 L21,18" fill="none" stroke="gray"></path></marker></defs><defs><marker orient="auto" markerHeight="36" markerWidth="45" refY="18" refX="18" id="ONE_OR_MORE_START"><path d="M0,18 Q 18,0 36,18 Q 18,36 0,18 M42,9 L42,27" fill="none" stroke="gray"></path></marker></defs><defs><marker orient="auto" markerHeight="36" markerWidth="45" refY="18" refX="27" id="ONE_OR_MORE_END"><path d="M3,9 L3,27 M9,18 Q27,0 45,18 Q27,36 9,18" fill="none" stroke="gray"></path></marker></defs><defs><marker orient="auto" markerHeight="36" markerWidth="57" refY="18" refX="18" id="ZERO_OR_MORE_START"><circle r="6" cy="18" cx="48" fill="white" stroke="gray"></circle><path d="M0,18 Q18,0 36,18 Q18,36 0,18" fill="none" stroke="gray"></path></marker></defs><defs><marker orient="auto" markerHeight="36" markerWidth="57" refY="18" refX="39" id="ZERO_OR_MORE_END"><circle r="6" cy="18" cx="9" fill="white" stroke="gray"></circle><path d="M21,18 Q39,0 57,18 Q39,36 21,18" fill="none" stroke="gray"></path></marker></defs><path marker-start="url(#ONLY_ONE_START)" marker-end="url(#ZERO_OR_MORE_END)" style="stroke: gray; fill: none;" d="M721.4,207.717L740.033,225.364C758.667,243.011,795.933,278.306,814.567,304.286C833.2,330.267,833.2,346.933,833.2,355.267L833.2,363.6" class="er relationshipLine"></path><path marker-start="url(#ONLY_ONE_START)" marker-end="url(#ZERO_OR_MORE_END)" style="stroke: gray; fill: none;" d="M582.2,184.292L546.9,205.843C511.6,227.395,441,270.497,405.7,311.515C370.4,352.533,370.4,391.467,370.4,430.4C370.4,469.333,370.4,508.267,373.402,536.067C376.404,563.867,382.408,580.533,385.41,588.867L388.412,597.2" class="er relationshipLine"></path><path marker-start="url(#ONLY_ONE_START)" marker-end="url(#ZERO_OR_MORE_END)" style="stroke: gray; fill: none;" d="M728.6,483.197L707.467,493.864C686.333,504.531,644.067,525.866,612.042,544.866C580.018,563.867,558.236,580.533,547.345,588.867L536.454,597.2" class="er relationshipLine"></path><path marker-start="url(#ONLY_ONE_START)" marker-end="url(#ZERO_OR_MORE_END)" style="stroke: gray; fill: none;" d="M861.796,497.2L865.363,505.533C868.931,513.867,876.065,530.533,879.633,552.7C883.2,574.867,883.2,602.533,883.2,616.367L883.2,630.2" class="er relationshipLine"></path><path marker-start="url(#ONLY_ONE_START)" marker-end="url(#ZERO_OR_MORE_END)" style="stroke: gray; fill: none;" d="M290.271,774.8L278.059,783.133C265.847,791.467,241.424,808.133,229.212,824.8C217,841.467,217,858.133,217,866.467L217,874.8" class="er relationshipLine"></path><path marker-start="url(#ONLY_ONE_START)" marker-end="url(#ZERO_OR_MORE_END)" style="stroke: gray; fill: none;" d="M550.529,774.8L562.741,783.133C574.953,791.467,599.376,808.133,611.588,824.8C623.8,841.467,623.8,858.133,623.8,866.467L623.8,874.8" class="er relationshipLine"></path><g transform="translate(582.2000007629395,20 )" id="entity-User-818c511a-4a32-5484-ba70-875d765a9175"><rect height="243.60000038146973" width="139.20000076293945" y="0" x="0" class="er entityBox"></rect><text transform="translate(69.60000038146973,11.800000190734863)" style="dominant-baseline: middle; text-anchor: middle; font-size: 12px;" y="0" x="0" id="text-entity-User-818c511a-4a32-5484-ba70-875d765a9175" class="er entityLabel">User</text><rect height="22" width="65.20000076293945" y="23.600000381469727" x="0" class="er attributeBoxOdd"></rect><text transform="translate(5,34.60000038146973)" style="dominant-baseline: middle; font-size: 10.2px;" y="0" x="0" id="text-entity-User-818c511a-4a32-5484-ba70-875d765a9175-attr-1-type" class="er entityLabel">int</text><rect height="22" width="74" y="23.600000381469727" x="65.20000076293945" class="er attributeBoxOdd"></rect><text transform="translate(70.20000076293945,34.60000038146973)" style="dominant-baseline: middle; font-size: 10.2px;" y="0" x="0" id="text-entity-User-818c511a-4a32-5484-ba70-875d765a9175-attr-1-name" class="er entityLabel">id</text><rect height="22" width="65.20000076293945" y="45.60000038146973" x="0" class="er attributeBoxEven"></rect><text transform="translate(5,56.60000038146973)" style="dominant-baseline: middle; font-size: 10.2px;" y="0" x="0" id="text-entity-User-818c511a-4a32-5484-ba70-875d765a9175-attr-2-type" class="er entityLabel">string</text><rect height="22" width="74" y="45.60000038146973" x="65.20000076293945" class="er attributeBoxEven"></rect><text transform="translate(70.20000076293945,56.60000038146973)" style="dominant-baseline: middle; font-size: 10.2px;" y="0" x="0" id="text-entity-User-818c511a-4a32-5484-ba70-875d765a9175-attr-2-name" class="er entityLabel">username</text><rect height="22" width="65.20000076293945" y="67.60000038146973" x="0" class="er attributeBoxOdd"></rect><text transform="translate(5,78.60000038146973)" style="dominant-baseline: middle; font-size: 10.2px;" y="0" x="0" id="text-entity-User-818c511a-4a32-5484-ba70-875d765a9175-attr-3-type" class="er entityLabel">string</text><rect height="22" width="74" y="67.60000038146973" x="65.20000076293945" class="er attributeBoxOdd"></rect><text transform="translate(70.20000076293945,78.60000038146973)" style="dominant-baseline: middle; font-size: 10.2px;" y="0" x="0" id="text-entity-User-818c511a-4a32-5484-ba70-875d765a9175-attr-3-name" class="er entityLabel">email</text><rect height="22" width="65.20000076293945" y="89.60000038146973" x="0" class="er attributeBoxEven"></rect><text transform="translate(5,100.60000038146973)" style="dominant-baseline: middle; font-size: 10.2px;" y="0" x="0" id="text-entity-User-818c511a-4a32-5484-ba70-875d765a9175-attr-4-type" class="er entityLabel">string</text><rect height="22" width="74" y="89.60000038146973" x="65.20000076293945" class="er attributeBoxEven"></rect><text transform="translate(70.20000076293945,100.60000038146973)" style="dominant-baseline: middle; font-size: 10.2px;" y="0" x="0" id="text-entity-User-818c511a-4a32-5484-ba70-875d765a9175-attr-4-name" class="er entityLabel">password</text><rect height="22" width="65.20000076293945" y="111.60000038146973" x="0" class="er attributeBoxOdd"></rect><text transform="translate(5,122.60000038146973)" style="dominant-baseline: middle; font-size: 10.2px;" y="0" x="0" id="text-entity-User-818c511a-4a32-5484-ba70-875d765a9175-attr-5-type" class="er entityLabel">string</text><rect height="22" width="74" y="111.60000038146973" x="65.20000076293945" class="er attributeBoxOdd"></rect><text transform="translate(70.20000076293945,122.60000038146973)" style="dominant-baseline: middle; font-size: 10.2px;" y="0" x="0" id="text-entity-User-818c511a-4a32-5484-ba70-875d765a9175-attr-5-name" class="er entityLabel">first_name</text><rect height="22" width="65.20000076293945" y="133.60000038146973" x="0" class="er attributeBoxEven"></rect><text transform="translate(5,144.60000038146973)" style="dominant-baseline: middle; font-size: 10.2px;" y="0" x="0" id="text-entity-User-818c511a-4a32-5484-ba70-875d765a9175-attr-6-type" class="er entityLabel">string</text><rect height="22" width="74" y="133.60000038146973" x="65.20000076293945" class="er attributeBoxEven"></rect><text transform="translate(70.20000076293945,144.60000038146973)" style="dominant-baseline: middle; font-size: 10.2px;" y="0" x="0" id="text-entity-User-818c511a-4a32-5484-ba70-875d765a9175-attr-6-name" class="er entityLabel">last_name</text><rect height="22" width="65.20000076293945" y="155.60000038146973" x="0" class="er attributeBoxOdd"></rect><text transform="translate(5,166.60000038146973)" style="dominant-baseline: middle; font-size: 10.2px;" y="0" x="0" id="text-entity-User-818c511a-4a32-5484-ba70-875d765a9175-attr-7-type" class="er entityLabel">bool</text><rect height="22" width="74" y="155.60000038146973" x="65.20000076293945" class="er attributeBoxOdd"></rect><text transform="translate(70.20000076293945,166.60000038146973)" style="dominant-baseline: middle; font-size: 10.2px;" y="0" x="0" id="text-entity-User-818c511a-4a32-5484-ba70-875d765a9175-attr-7-name" class="er entityLabel">is_superuser</text><rect height="22" width="65.20000076293945" y="177.60000038146973" x="0" class="er attributeBoxEven"></rect><text transform="translate(5,188.60000038146973)" style="dominant-baseline: middle; font-size: 10.2px;" y="0" x="0" id="text-entity-User-818c511a-4a32-5484-ba70-875d765a9175-attr-8-type" class="er entityLabel">bool</text><rect height="22" width="74" y="177.60000038146973" x="65.20000076293945" class="er attributeBoxEven"></rect><text transform="translate(70.20000076293945,188.60000038146973)" style="dominant-baseline: middle; font-size: 10.2px;" y="0" x="0" id="text-entity-User-818c511a-4a32-5484-ba70-875d765a9175-attr-8-name" class="er entityLabel">is_staff</text><rect height="22" width="65.20000076293945" y="199.60000038146973" x="0" class="er attributeBoxOdd"></rect><text transform="translate(5,210.60000038146973)" style="dominant-baseline: middle; font-size: 10.2px;" y="0" x="0" id="text-entity-User-818c511a-4a32-5484-ba70-875d765a9175-attr-9-type" class="er entityLabel">timestamp</text><rect height="22" width="74" y="199.60000038146973" x="65.20000076293945" class="er attributeBoxOdd"></rect><text transform="translate(70.20000076293945,210.60000038146973)" style="dominant-baseline: middle; font-size: 10.2px;" y="0" x="0" id="text-entity-User-818c511a-4a32-5484-ba70-875d765a9175-attr-9-name" class="er entityLabel">last_login</text><rect height="22" width="65.20000076293945" y="221.60000038146973" x="0" class="er attributeBoxEven"></rect><text transform="translate(5,232.60000038146973)" style="dominant-baseline: middle; font-size: 10.2px;" y="0" x="0" id="text-entity-User-818c511a-4a32-5484-ba70-875d765a9175-attr-10-type" class="er entityLabel">timestamp</text><rect height="22" width="74" y="221.60000038146973" x="65.20000076293945" class="er attributeBoxEven"></rect><text transform="translate(70.20000076293945,232.60000038146973)" style="dominant-baseline: middle; font-size: 10.2px;" y="0" x="0" id="text-entity-User-818c511a-4a32-5484-ba70-875d765a9175-attr-10-name" class="er entityLabel">date_joined</text></g><g transform="translate(728.6000022888184,363.6000061035156 )" id="entity-Project-c2395ed5-a5fa-58df-9cbe-a2926add311c"><rect height="133.60000038146973" width="209.1999969482422" y="0" x="0" class="er entityBox"></rect><text transform="translate(104.5999984741211,11.800000190734863)" style="dominant-baseline: middle; text-anchor: middle; font-size: 12px;" y="0" x="0" id="text-entity-Project-c2395ed5-a5fa-58df-9cbe-a2926add311c" class="er entityLabel">Project</text><rect height="22" width="65.20000076293945" y="23.600000381469727" x="0" class="er attributeBoxOdd"></rect><text transform="translate(5,34.60000038146973)" style="dominant-baseline: middle; font-size: 10.2px;" y="0" x="0" id="text-entity-Project-c2395ed5-a5fa-58df-9cbe-a2926add311c-attr-1-type" class="er entityLabel">int</text><rect height="22" width="66.79999923706055" y="23.600000381469727" x="65.20000076293945" class="er attributeBoxOdd"></rect><text transform="translate(70.20000076293945,34.60000038146973)" style="dominant-baseline: middle; font-size: 10.2px;" y="0" x="0" id="text-entity-Project-c2395ed5-a5fa-58df-9cbe-a2926add311c-attr-1-name" class="er entityLabel">id</text><rect height="22" width="77.19999694824219" y="23.600000381469727" x="132" class="er attributeBoxOdd"></rect><text transform="translate(137,34.60000038146973)" style="dominant-baseline: middle; font-size: 10.2px;" y="0" x="0" id="text-entity-Project-c2395ed5-a5fa-58df-9cbe-a2926add311c-attr-1-comment" class="er entityLabel"></text><rect height="22" width="65.20000076293945" y="45.60000038146973" x="0" class="er attributeBoxEven"></rect><text transform="translate(5,56.60000038146973)" style="dominant-baseline: middle; font-size: 10.2px;" y="0" x="0" id="text-entity-Project-c2395ed5-a5fa-58df-9cbe-a2926add311c-attr-2-type" class="er entityLabel">int</text><rect height="22" width="66.79999923706055" y="45.60000038146973" x="65.20000076293945" class="er attributeBoxEven"></rect><text transform="translate(70.20000076293945,56.60000038146973)" style="dominant-baseline: middle; font-size: 10.2px;" y="0" x="0" id="text-entity-Project-c2395ed5-a5fa-58df-9cbe-a2926add311c-attr-2-name" class="er entityLabel">owner_id</text><rect height="22" width="77.19999694824219" y="45.60000038146973" x="132" class="er attributeBoxEven"></rect><text transform="translate(137,56.60000038146973)" style="dominant-baseline: middle; font-size: 10.2px;" y="0" x="0" id="text-entity-Project-c2395ed5-a5fa-58df-9cbe-a2926add311c-attr-2-comment" class="er entityLabel"></text><rect height="22" width="65.20000076293945" y="67.60000038146973" x="0" class="er attributeBoxOdd"></rect><text transform="translate(5,78.60000038146973)" style="dominant-baseline: middle; font-size: 10.2px;" y="0" x="0" id="text-entity-Project-c2395ed5-a5fa-58df-9cbe-a2926add311c-attr-3-type" class="er entityLabel">string</text><rect height="22" width="66.79999923706055" y="67.60000038146973" x="65.20000076293945" class="er attributeBoxOdd"></rect><text transform="translate(70.20000076293945,78.60000038146973)" style="dominant-baseline: middle; font-size: 10.2px;" y="0" x="0" id="text-entity-Project-c2395ed5-a5fa-58df-9cbe-a2926add311c-attr-3-name" class="er entityLabel">name</text><rect height="22" width="77.19999694824219" y="67.60000038146973" x="132" class="er attributeBoxOdd"></rect><text transform="translate(137,78.60000038146973)" style="dominant-baseline: middle; font-size: 10.2px;" y="0" x="0" id="text-entity-Project-c2395ed5-a5fa-58df-9cbe-a2926add311c-attr-3-comment" class="er entityLabel"></text><rect height="22" width="65.20000076293945" y="89.60000038146973" x="0" class="er attributeBoxEven"></rect><text transform="translate(5,100.60000038146973)" style="dominant-baseline: middle; font-size: 10.2px;" y="0" x="0" id="text-entity-Project-c2395ed5-a5fa-58df-9cbe-a2926add311c-attr-4-type" class="er entityLabel">string</text><rect height="22" width="66.79999923706055" y="89.60000038146973" x="65.20000076293945" class="er attributeBoxEven"></rect><text transform="translate(70.20000076293945,100.60000038146973)" style="dominant-baseline: middle; font-size: 10.2px;" y="0" x="0" id="text-entity-Project-c2395ed5-a5fa-58df-9cbe-a2926add311c-attr-4-name" class="er entityLabel">description</text><rect height="22" width="77.19999694824219" y="89.60000038146973" x="132" class="er attributeBoxEven"></rect><text transform="translate(137,100.60000038146973)" style="dominant-baseline: middle; font-size: 10.2px;" y="0" x="0" id="text-entity-Project-c2395ed5-a5fa-58df-9cbe-a2926add311c-attr-4-comment" class="er entityLabel"></text><rect height="22" width="65.20000076293945" y="111.60000038146973" x="0" class="er attributeBoxOdd"></rect><text transform="translate(5,122.60000038146973)" style="dominant-baseline: middle; font-size: 10.2px;" y="0" x="0" id="text-entity-Project-c2395ed5-a5fa-58df-9cbe-a2926add311c-attr-5-type" class="er entityLabel">timestamp</text><rect height="22" width="66.79999923706055" y="111.60000038146973" x="65.20000076293945" class="er attributeBoxOdd"></rect><text transform="translate(70.20000076293945,122.60000038146973)" style="dominant-baseline: middle; font-size: 10.2px;" y="0" x="0" id="text-entity-Project-c2395ed5-a5fa-58df-9cbe-a2926add311c-attr-5-name" class="er entityLabel">created_at</text><rect height="22" width="77.19999694824219" y="111.60000038146973" x="132" class="er attributeBoxOdd"></rect><text transform="translate(137,122.60000038146973)" style="dominant-baseline: middle; font-size: 10.2px;" y="0" x="0" id="text-entity-Project-c2395ed5-a5fa-58df-9cbe-a2926add311c-attr-5-comment" class="er entityLabel">default now()</text></g><g transform="translate(235.39999771118164,597.2000122070312 )" id="entity-Task-48d7b74a-e47a-5efe-8103-e90c35d0bbcd"><rect height="177.60000038146973" width="370" y="0" x="0" class="er entityBox"></rect><text transform="translate(185,11.800000190734863)" style="dominant-baseline: middle; text-anchor: middle; font-size: 12px;" y="0" x="0" id="text-entity-Task-48d7b74a-e47a-5efe-8103-e90c35d0bbcd" class="er entityLabel">Task</text><rect height="22" width="65.20000076293945" y="23.600000381469727" x="0" class="er attributeBoxOdd"></rect><text transform="translate(5,34.60000038146973)" style="dominant-baseline: middle; font-size: 10.2px;" y="0" x="0" id="text-entity-Task-48d7b74a-e47a-5efe-8103-e90c35d0bbcd-attr-1-type" class="er entityLabel">int</text><rect height="22" width="62.79999923706055" y="23.600000381469727" x="65.20000076293945" class="er attributeBoxOdd"></rect><text transform="translate(70.20000076293945,34.60000038146973)" style="dominant-baseline: middle; font-size: 10.2px;" y="0" x="0" id="text-entity-Task-48d7b74a-e47a-5efe-8103-e90c35d0bbcd-attr-1-name" class="er entityLabel">id</text><rect height="22" width="242" y="23.600000381469727" x="128" class="er attributeBoxOdd"></rect><text transform="translate(133,34.60000038146973)" style="dominant-baseline: middle; font-size: 10.2px;" y="0" x="0" id="text-entity-Task-48d7b74a-e47a-5efe-8103-e90c35d0bbcd-attr-1-comment" class="er entityLabel"></text><rect height="22" width="65.20000076293945" y="45.60000038146973" x="0" class="er attributeBoxEven"></rect><text transform="translate(5,56.60000038146973)" style="dominant-baseline: middle; font-size: 10.2px;" y="0" x="0" id="text-entity-Task-48d7b74a-e47a-5efe-8103-e90c35d0bbcd-attr-2-type" class="er entityLabel">int</text><rect height="22" width="62.79999923706055" y="45.60000038146973" x="65.20000076293945" class="er attributeBoxEven"></rect><text transform="translate(70.20000076293945,56.60000038146973)" style="dominant-baseline: middle; font-size: 10.2px;" y="0" x="0" id="text-entity-Task-48d7b74a-e47a-5efe-8103-e90c35d0bbcd-attr-2-name" class="er entityLabel">user_id</text><rect height="22" width="242" y="45.60000038146973" x="128" class="er attributeBoxEven"></rect><text transform="translate(133,56.60000038146973)" style="dominant-baseline: middle; font-size: 10.2px;" y="0" x="0" id="text-entity-Task-48d7b74a-e47a-5efe-8103-e90c35d0bbcd-attr-2-comment" class="er entityLabel"></text><rect height="22" width="65.20000076293945" y="67.60000038146973" x="0" class="er attributeBoxOdd"></rect><text transform="translate(5,78.60000038146973)" style="dominant-baseline: middle; font-size: 10.2px;" y="0" x="0" id="text-entity-Task-48d7b74a-e47a-5efe-8103-e90c35d0bbcd-attr-3-type" class="er entityLabel">int</text><rect height="22" width="62.79999923706055" y="67.60000038146973" x="65.20000076293945" class="er attributeBoxOdd"></rect><text transform="translate(70.20000076293945,78.60000038146973)" style="dominant-baseline: middle; font-size: 10.2px;" y="0" x="0" id="text-entity-Task-48d7b74a-e47a-5efe-8103-e90c35d0bbcd-attr-3-name" class="er entityLabel">project_id</text><rect height="22" width="242" y="67.60000038146973" x="128" class="er attributeBoxOdd"></rect><text transform="translate(133,78.60000038146973)" style="dominant-baseline: middle; font-size: 10.2px;" y="0" x="0" id="text-entity-Task-48d7b74a-e47a-5efe-8103-e90c35d0bbcd-attr-3-comment" class="er entityLabel"></text><rect height="22" width="65.20000076293945" y="89.60000038146973" x="0" class="er attributeBoxEven"></rect><text transform="translate(5,100.60000038146973)" style="dominant-baseline: middle; font-size: 10.2px;" y="0" x="0" id="text-entity-Task-48d7b74a-e47a-5efe-8103-e90c35d0bbcd-attr-4-type" class="er entityLabel">string</text><rect height="22" width="62.79999923706055" y="89.60000038146973" x="65.20000076293945" class="er attributeBoxEven"></rect><text transform="translate(70.20000076293945,100.60000038146973)" style="dominant-baseline: middle; font-size: 10.2px;" y="0" x="0" id="text-entity-Task-48d7b74a-e47a-5efe-8103-e90c35d0bbcd-attr-4-name" class="er entityLabel">name</text><rect height="22" width="242" y="89.60000038146973" x="128" class="er attributeBoxEven"></rect><text transform="translate(133,100.60000038146973)" style="dominant-baseline: middle; font-size: 10.2px;" y="0" x="0" id="text-entity-Task-48d7b74a-e47a-5efe-8103-e90c35d0bbcd-attr-4-comment" class="er entityLabel"></text><rect height="22" width="65.20000076293945" y="111.60000038146973" x="0" class="er attributeBoxOdd"></rect><text transform="translate(5,122.60000038146973)" style="dominant-baseline: middle; font-size: 10.2px;" y="0" x="0" id="text-entity-Task-48d7b74a-e47a-5efe-8103-e90c35d0bbcd-attr-5-type" class="er entityLabel">string</text><rect height="22" width="62.79999923706055" y="111.60000038146973" x="65.20000076293945" class="er attributeBoxOdd"></rect><text transform="translate(70.20000076293945,122.60000038146973)" style="dominant-baseline: middle; font-size: 10.2px;" y="0" x="0" id="text-entity-Task-48d7b74a-e47a-5efe-8103-e90c35d0bbcd-attr-5-name" class="er entityLabel">status</text><rect height="22" width="242" y="111.60000038146973" x="128" class="er attributeBoxOdd"></rect><text transform="translate(133,122.60000038146973)" style="dominant-baseline: middle; font-size: 10.2px;" y="0" x="0" id="text-entity-Task-48d7b74a-e47a-5efe-8103-e90c35d0bbcd-attr-5-comment" class="er entityLabel">ASSIGNED | IN_PROGRESS | FINISHED | CLOSED</text><rect height="22" width="65.20000076293945" y="133.60000038146973" x="0" class="er attributeBoxEven"></rect><text transform="translate(5,144.60000038146973)" style="dominant-baseline: middle; font-size: 10.2px;" y="0" x="0" id="text-entity-Task-48d7b74a-e47a-5efe-8103-e90c35d0bbcd-attr-6-type" class="er entityLabel">string</text><rect height="22" width="62.79999923706055" y="133.60000038146973" x="65.20000076293945" class="er attributeBoxEven"></rect><text transform="translate(70.20000076293945,144.60000038146973)" style="dominant-baseline: middle; font-size: 10.2px;" y="0" x="0" id="text-entity-Task-48d7b74a-e47a-5efe-8103-e90c35d0bbcd-attr-6-name" class="er entityLabel">priority</text><rect height="22" width="242" y="133.60000038146973" x="128" class="er attributeBoxEven"></rect><text transform="translate(133,144.60000038146973)" style="dominant-baseline: middle; font-size: 10.2px;" y="0" x="0" id="text-entity-Task-48d7b74a-e47a-5efe-8103-e90c35d0bbcd-attr-6-comment" class="er entityLabel">LOW | MEDIUM | HIGH</text><rect height="22" width="65.20000076293945" y="155.60000038146973" x="0" class="er attributeBoxOdd"></rect><text transform="translate(5,166.60000038146973)" style="dominant-baseline: middle; font-size: 10.2px;" y="0" x="0" id="text-entity-Task-48d7b74a-e47a-5efe-8103-e90c35d0bbcd-attr-7-type" class="er entityLabel">timestamp</text><rect height="22" width="62.79999923706055" y="155.60000038146973" x="65.20000076293945" class="er attributeBoxOdd"></rect><text transform="translate(70.20000076293945,166.60000038146973)" style="dominant-baseline: middle; font-size: 10.2px;" y="0" x="0" id="text-entity-Task-48d7b74a-e47a-5efe-8103-e90c35d0bbcd-attr-7-name" class="er entityLabel">deadline</text><rect height="22" width="242" y="155.60000038146973" x="128" class="er attributeBoxOdd"></rect><text transform="translate(133,166.60000038146973)" style="dominant-baseline: middle; font-size: 10.2px;" y="0" x="0" id="text-entity-Task-48d7b74a-e47a-5efe-8103-e90c35d0bbcd-attr-7-comment" class="er entityLabel">check deadline &gt; now()</text></g><g transform="translate(20,874.8000183105469 )" id="entity-TaskLog-62dfc8c1-86f5-50bf-a97a-15ac299c1f93"><rect height="111.60000038146973" width="394.00000381469727" y="0" x="0" class="er entityBox"></rect><text transform="translate(197.00000190734863,11.800000190734863)" style="dominant-baseline: middle; text-anchor: middle; font-size: 12px;" y="0" x="0" id="text-entity-TaskLog-62dfc8c1-86f5-50bf-a97a-15ac299c1f93" class="er entityLabel">Task_Log</text><rect height="22" width="65.20000076293945" y="23.600000381469727" x="0" class="er attributeBoxOdd"></rect><text transform="translate(5,34.60000038146973)" style="dominant-baseline: middle; font-size: 10.2px;" y="0" x="0" id="text-entity-TaskLog-62dfc8c1-86f5-50bf-a97a-15ac299c1f93-attr-1-type" class="er entityLabel">int</text><rect height="22" width="86.80000305175781" y="23.600000381469727" x="65.20000076293945" class="er attributeBoxOdd"></rect><text transform="translate(70.20000076293945,34.60000038146973)" style="dominant-baseline: middle; font-size: 10.2px;" y="0" x="0" id="text-entity-TaskLog-62dfc8c1-86f5-50bf-a97a-15ac299c1f93-attr-1-name" class="er entityLabel">id</text><rect height="22" width="242" y="23.600000381469727" x="152.00000381469727" class="er attributeBoxOdd"></rect><text transform="translate(157.00000381469727,34.60000038146973)" style="dominant-baseline: middle; font-size: 10.2px;" y="0" x="0" id="text-entity-TaskLog-62dfc8c1-86f5-50bf-a97a-15ac299c1f93-attr-1-comment" class="er entityLabel"></text><rect height="22" width="65.20000076293945" y="45.60000038146973" x="0" class="er attributeBoxEven"></rect><text transform="translate(5,56.60000038146973)" style="dominant-baseline: middle; font-size: 10.2px;" y="0" x="0" id="text-entity-TaskLog-62dfc8c1-86f5-50bf-a97a-15ac299c1f93-attr-2-type" class="er entityLabel">int</text><rect height="22" width="86.80000305175781" y="45.60000038146973" x="65.20000076293945" class="er attributeBoxEven"></rect><text transform="translate(70.20000076293945,56.60000038146973)" style="dominant-baseline: middle; font-size: 10.2px;" y="0" x="0" id="text-entity-TaskLog-62dfc8c1-86f5-50bf-a97a-15ac299c1f93-attr-2-name" class="er entityLabel">task_id</text><rect height="22" width="242" y="45.60000038146973" x="152.00000381469727" class="er attributeBoxEven"></rect><text transform="translate(157.00000381469727,56.60000038146973)" style="dominant-baseline: middle; font-size: 10.2px;" y="0" x="0" id="text-entity-TaskLog-62dfc8c1-86f5-50bf-a97a-15ac299c1f93-attr-2-comment" class="er entityLabel"></text><rect height="22" width="65.20000076293945" y="67.60000038146973" x="0" class="er attributeBoxOdd"></rect><text transform="translate(5,78.60000038146973)" style="dominant-baseline: middle; font-size: 10.2px;" y="0" x="0" id="text-entity-TaskLog-62dfc8c1-86f5-50bf-a97a-15ac299c1f93-attr-3-type" class="er entityLabel">string</text><rect height="22" width="86.80000305175781" y="67.60000038146973" x="65.20000076293945" class="er attributeBoxOdd"></rect><text transform="translate(70.20000076293945,78.60000038146973)" style="dominant-baseline: middle; font-size: 10.2px;" y="0" x="0" id="text-entity-TaskLog-62dfc8c1-86f5-50bf-a97a-15ac299c1f93-attr-3-name" class="er entityLabel">updated_status</text><rect height="22" width="242" y="67.60000038146973" x="152.00000381469727" class="er attributeBoxOdd"></rect><text transform="translate(157.00000381469727,78.60000038146973)" style="dominant-baseline: middle; font-size: 10.2px;" y="0" x="0" id="text-entity-TaskLog-62dfc8c1-86f5-50bf-a97a-15ac299c1f93-attr-3-comment" class="er entityLabel">ASSIGNED | IN_PROGRESS | FINISHED | CLOSED</text><rect height="22" width="65.20000076293945" y="89.60000038146973" x="0" class="er attributeBoxEven"></rect><text transform="translate(5,100.60000038146973)" style="dominant-baseline: middle; font-size: 10.2px;" y="0" x="0" id="text-entity-TaskLog-62dfc8c1-86f5-50bf-a97a-15ac299c1f93-attr-4-type" class="er entityLabel">timestamp</text><rect height="22" width="86.80000305175781" y="89.60000038146973" x="65.20000076293945" class="er attributeBoxEven"></rect><text transform="translate(70.20000076293945,100.60000038146973)" style="dominant-baseline: middle; font-size: 10.2px;" y="0" x="0" id="text-entity-TaskLog-62dfc8c1-86f5-50bf-a97a-15ac299c1f93-attr-4-name" class="er entityLabel">updated_at</text><rect height="22" width="242" y="89.60000038146973" x="152.00000381469727" class="er attributeBoxEven"></rect><text transform="translate(157.00000381469727,100.60000038146973)" style="dominant-baseline: middle; font-size: 10.2px;" y="0" x="0" id="text-entity-TaskLog-62dfc8c1-86f5-50bf-a97a-15ac299c1f93-attr-4-comment" class="er entityLabel">default now()</text></g><g transform="translate(514,874.8000183105469 )" id="entity-WorkLog-7b79522f-a603-5b08-b7b6-8bb7d832468c"><rect height="111.60000038146973" width="219.59999465942383" y="0" x="0" class="er entityBox"></rect><text transform="translate(109.79999732971191,11.800000190734863)" style="dominant-baseline: middle; text-anchor: middle; font-size: 12px;" y="0" x="0" id="text-entity-WorkLog-7b79522f-a603-5b08-b7b6-8bb7d832468c" class="er entityLabel">Work_Log</text><rect height="22" width="65.20000076293945" y="23.600000381469727" x="0" class="er attributeBoxOdd"></rect><text transform="translate(5,34.60000038146973)" style="dominant-baseline: middle; font-size: 10.2px;" y="0" x="0" id="text-entity-WorkLog-7b79522f-a603-5b08-b7b6-8bb7d832468c-attr-1-type" class="er entityLabel">int</text><rect height="22" width="77.19999694824219" y="23.600000381469727" x="65.20000076293945" class="er attributeBoxOdd"></rect><text transform="translate(70.20000076293945,34.60000038146973)" style="dominant-baseline: middle; font-size: 10.2px;" y="0" x="0" id="text-entity-WorkLog-7b79522f-a603-5b08-b7b6-8bb7d832468c-attr-1-name" class="er entityLabel">id</text><rect height="22" width="77.19999694824219" y="23.600000381469727" x="142.39999771118164" class="er attributeBoxOdd"></rect><text transform="translate(147.39999771118164,34.60000038146973)" style="dominant-baseline: middle; font-size: 10.2px;" y="0" x="0" id="text-entity-WorkLog-7b79522f-a603-5b08-b7b6-8bb7d832468c-attr-1-comment" class="er entityLabel"></text><rect height="22" width="65.20000076293945" y="45.60000038146973" x="0" class="er attributeBoxEven"></rect><text transform="translate(5,56.60000038146973)" style="dominant-baseline: middle; font-size: 10.2px;" y="0" x="0" id="text-entity-WorkLog-7b79522f-a603-5b08-b7b6-8bb7d832468c-attr-2-type" class="er entityLabel">int</text><rect height="22" width="77.19999694824219" y="45.60000038146973" x="65.20000076293945" class="er attributeBoxEven"></rect><text transform="translate(70.20000076293945,56.60000038146973)" style="dominant-baseline: middle; font-size: 10.2px;" y="0" x="0" id="text-entity-WorkLog-7b79522f-a603-5b08-b7b6-8bb7d832468c-attr-2-name" class="er entityLabel">task_id</text><rect height="22" width="77.19999694824219" y="45.60000038146973" x="142.39999771118164" class="er attributeBoxEven"></rect><text transform="translate(147.39999771118164,56.60000038146973)" style="dominant-baseline: middle; font-size: 10.2px;" y="0" x="0" id="text-entity-WorkLog-7b79522f-a603-5b08-b7b6-8bb7d832468c-attr-2-comment" class="er entityLabel"></text><rect height="22" width="65.20000076293945" y="67.60000038146973" x="0" class="er attributeBoxOdd"></rect><text transform="translate(5,78.60000038146973)" style="dominant-baseline: middle; font-size: 10.2px;" y="0" x="0" id="text-entity-WorkLog-7b79522f-a603-5b08-b7b6-8bb7d832468c-attr-3-type" class="er entityLabel">interval</text><rect height="22" width="77.19999694824219" y="67.60000038146973" x="65.20000076293945" class="er attributeBoxOdd"></rect><text transform="translate(70.20000076293945,78.60000038146973)" style="dominant-baseline: middle; font-size: 10.2px;" y="0" x="0" id="text-entity-WorkLog-7b79522f-a603-5b08-b7b6-8bb7d832468c-attr-3-name" class="er entityLabel">work_time</text><rect height="22" width="77.19999694824219" y="67.60000038146973" x="142.39999771118164" class="er attributeBoxOdd"></rect><text transform="translate(147.39999771118164,78.60000038146973)" style="dominant-baseline: middle; font-size: 10.2px;" y="0" x="0" id="text-entity-WorkLog-7b79522f-a603-5b08-b7b6-8bb7d832468c-attr-3-comment" class="er entityLabel"></text><rect height="22" width="65.20000076293945" y="89.60000038146973" x="0" class="er attributeBoxEven"></rect><text transform="translate(5,100.60000038146973)" style="dominant-baseline: middle; font-size: 10.2px;" y="0" x="0" id="text-entity-WorkLog-7b79522f-a603-5b08-b7b6-8bb7d832468c-attr-4-type" class="er entityLabel">timestamp</text><rect height="22" width="77.19999694824219" y="89.60000038146973" x="65.20000076293945" class="er attributeBoxEven"></rect><text transform="translate(70.20000076293945,100.60000038146973)" style="dominant-baseline: middle; font-size: 10.2px;" y="0" x="0" id="text-entity-WorkLog-7b79522f-a603-5b08-b7b6-8bb7d832468c-attr-4-name" class="er entityLabel">submitted_at</text><rect height="22" width="77.19999694824219" y="89.60000038146973" x="142.39999771118164" class="er attributeBoxEven"></rect><text transform="translate(147.39999771118164,100.60000038146973)" style="dominant-baseline: middle; font-size: 10.2px;" y="0" x="0" id="text-entity-WorkLog-7b79522f-a603-5b08-b7b6-8bb7d832468c-attr-4-comment" class="er entityLabel">default now()</text></g><g transform="translate(705.3999977111816,630.2000160217285 )" id="entity-Archive-a41fd8b0-f789-5d92-8f16-75234cdd4905"><rect height="111.60000038146973" width="355.60000228881836" y="0" x="0" class="er entityBox"></rect><text transform="translate(177.80000114440918,11.800000190734863)" style="dominant-baseline: middle; text-anchor: middle; font-size: 12px;" y="0" x="0" id="text-entity-Archive-a41fd8b0-f789-5d92-8f16-75234cdd4905" class="er entityLabel">Archive</text><rect height="22" width="42" y="23.600000381469727" x="0" class="er attributeBoxOdd"></rect><text transform="translate(5,34.60000038146973)" style="dominant-baseline: middle; font-size: 10.2px;" y="0" x="0" id="text-entity-Archive-a41fd8b0-f789-5d92-8f16-75234cdd4905-attr-1-type" class="er entityLabel">int</text><rect height="22" width="62.79999923706055" y="23.600000381469727" x="42" class="er attributeBoxOdd"></rect><text transform="translate(47,34.60000038146973)" style="dominant-baseline: middle; font-size: 10.2px;" y="0" x="0" id="text-entity-Archive-a41fd8b0-f789-5d92-8f16-75234cdd4905-attr-1-name" class="er entityLabel">id</text><rect height="22" width="250.8000030517578" y="23.600000381469727" x="104.79999923706055" class="er attributeBoxOdd"></rect><text transform="translate(109.79999923706055,34.60000038146973)" style="dominant-baseline: middle; font-size: 10.2px;" y="0" x="0" id="text-entity-Archive-a41fd8b0-f789-5d92-8f16-75234cdd4905-attr-1-comment" class="er entityLabel"></text><rect height="22" width="42" y="45.60000038146973" x="0" class="er attributeBoxEven"></rect><text transform="translate(5,56.60000038146973)" style="dominant-baseline: middle; font-size: 10.2px;" y="0" x="0" id="text-entity-Archive-a41fd8b0-f789-5d92-8f16-75234cdd4905-attr-2-type" class="er entityLabel">int</text><rect height="22" width="62.79999923706055" y="45.60000038146973" x="42" class="er attributeBoxEven"></rect><text transform="translate(47,56.60000038146973)" style="dominant-baseline: middle; font-size: 10.2px;" y="0" x="0" id="text-entity-Archive-a41fd8b0-f789-5d92-8f16-75234cdd4905-attr-2-name" class="er entityLabel">project_id</text><rect height="22" width="250.8000030517578" y="45.60000038146973" x="104.79999923706055" class="er attributeBoxEven"></rect><text transform="translate(109.79999923706055,56.60000038146973)" style="dominant-baseline: middle; font-size: 10.2px;" y="0" x="0" id="text-entity-Archive-a41fd8b0-f789-5d92-8f16-75234cdd4905-attr-2-comment" class="er entityLabel"></text><rect height="22" width="42" y="67.60000038146973" x="0" class="er attributeBoxOdd"></rect><text transform="translate(5,78.60000038146973)" style="dominant-baseline: middle; font-size: 10.2px;" y="0" x="0" id="text-entity-Archive-a41fd8b0-f789-5d92-8f16-75234cdd4905-attr-3-type" class="er entityLabel">string</text><rect height="22" width="62.79999923706055" y="67.60000038146973" x="42" class="er attributeBoxOdd"></rect><text transform="translate(47,78.60000038146973)" style="dominant-baseline: middle; font-size: 10.2px;" y="0" x="0" id="text-entity-Archive-a41fd8b0-f789-5d92-8f16-75234cdd4905-attr-3-name" class="er entityLabel">name</text><rect height="22" width="250.8000030517578" y="67.60000038146973" x="104.79999923706055" class="er attributeBoxOdd"></rect><text transform="translate(109.79999923706055,78.60000038146973)" style="dominant-baseline: middle; font-size: 10.2px;" y="0" x="0" id="text-entity-Archive-a41fd8b0-f789-5d92-8f16-75234cdd4905-attr-3-comment" class="er entityLabel">default ProjectName_Snapshot_CurrentTimestamp</text><rect height="22" width="42" y="89.60000038146973" x="0" class="er attributeBoxEven"></rect><text transform="translate(5,100.60000038146973)" style="dominant-baseline: middle; font-size: 10.2px;" y="0" x="0" id="text-entity-Archive-a41fd8b0-f789-5d92-8f16-75234cdd4905-attr-4-type" class="er entityLabel">string</text><rect height="22" width="62.79999923706055" y="89.60000038146973" x="42" class="er attributeBoxEven"></rect><text transform="translate(47,100.60000038146973)" style="dominant-baseline: middle; font-size: 10.2px;" y="0" x="0" id="text-entity-Archive-a41fd8b0-f789-5d92-8f16-75234cdd4905-attr-4-name" class="er entityLabel">file_path</text><rect height="22" width="250.8000030517578" y="89.60000038146973" x="104.79999923706055" class="er attributeBoxEven"></rect><text transform="translate(109.79999923706055,100.60000038146973)" style="dominant-baseline: middle; font-size: 10.2px;" y="0" x="0" id="text-entity-Archive-a41fd8b0-f789-5d92-8f16-75234cdd4905-attr-4-comment" class="er entityLabel"></text></g><rect height="0" width="0" y="277.1181945800781" x="791.9472045898438" class="er relationshipLabelBox"></rect><text style="text-anchor: middle; dominant-baseline: middle; font-size: 12px;" y="277.1181945800781" x="791.9472045898438" id="rel1" class="er relationshipLabel"></text><rect height="0" width="0" y="343.9368591308594" x="384.3153991699219" class="er relationshipLabelBox"></rect><text style="text-anchor: middle; dominant-baseline: middle; font-size: 12px;" y="343.9368591308594" x="384.3153991699219" id="rel2" class="er relationshipLabel"></text><rect height="0" width="0" y="534.9158325195312" x="629.3255004882812" class="er relationshipLabelBox"></rect><text style="text-anchor: middle; dominant-baseline: middle; font-size: 12px;" y="534.9158325195312" x="629.3255004882812" id="rel3" class="er relationshipLabel"></text><rect height="0" width="0" y="562.2063598632812" x="880.9227294921875" class="er relationshipLabelBox"></rect><text style="text-anchor: middle; dominant-baseline: middle; font-size: 12px;" y="562.2063598632812" x="880.9227294921875" id="rel4" class="er relationshipLabel"></text><rect height="0" width="0" y="814.7277221679688" x="237.9464874267578" class="er relationshipLabelBox"></rect><text style="text-anchor: middle; dominant-baseline: middle; font-size: 12px;" y="814.7277221679688" x="237.9464874267578" id="rel5" class="er relationshipLabel"></text><rect height="0" width="0" y="814.727783203125" x="602.853515625" class="er relationshipLabelBox"></rect><text style="text-anchor: middle; dominant-baseline: middle; font-size: 12px;" y="814.727783203125" x="602.853515625" id="rel6" class="er relationshipLabel"></text></svg>